<svg xmlns="http://www.w3.org/2000/svg" viewBox="0 0 100 100" role="img" aria-label="Floor.DSGN mark">
<g fill="#f5efdc">
<rect x="0" y="0" width="20" height="16" rx="4"/>
<rect x="22" y="0" width="34" height="16" rx="4"/>
<rect x="58" y="0" width="14" height="16" rx="4"/>
<rect x="74" y="0" width="26" height="16" rx="4"/>
<rect x="0" y="18" width="20" height="28" rx="4"/>
<rect x="22" y="18" width="14" height="36" rx="4"/>
<rect x="38" y="18" width="18" height="22" rx="4"/>
<rect x="58" y="18" width="14" height="36" rx="4"/>
<rect x="74" y="18" width="26" height="22" rx="4"/>
<rect x="0" y="48" width="20" height="34" rx="4"/>
<rect x="38" y="42" width="18" height="40" rx="4"/>
<rect x="74" y="42" width="26" height="40" rx="4"/>
<rect x="22" y="56" width="14" height="26" rx="4"/>
<rect x="58" y="56" width="14" height="26" rx="4"/>
<rect x="0" y="84" width="20" height="16" rx="4"/>
<rect x="22" y="84" width="34" height="16" rx="4"/>
<rect x="58" y="84" width="14" height="16" rx="4"/>
<rect x="74" y="84" width="26" height="16" rx="4"/>
</g>
</svg>
